<?xml version="1.0" encoding="utf-8"?>
<!-- Generator: Adobe Illustrator 22.1.0, SVG Export Plug-In . SVG Version: 6.00 Build 0)  -->
<svg version="1.1" id="Calque_1" xmlns="http://www.w3.org/2000/svg" xmlns:xlink="http://www.w3.org/1999/xlink" x="0px" y="0px"
	 viewBox="0 0 1920 1080" style="enable-background:new 0 0 1920 1080;" xml:space="preserve">
<style type="text/css">
	.st0{fill:#00B2AD;}
	.st1{fill:#424042;}
	.st2{font-family:'HelveticaNeueLTStd-Cn';}
	.st3{font-size:231.5103px;}
	.st4{letter-spacing:2;}
</style>
<g>
	<g>
		<path class="st0" d="M744.2,454c-4.1,0-7.5,3.3-7.5,7.5c0,4.1,3.3,7.5,7.5,7.5s7.5-3.3,7.5-7.5C751.7,457.4,748.3,454,744.2,454z"
			/>
		<path class="st0" d="M680.5,364.8c-96.8,0-175.2,78.4-175.2,175.2c0,96.8,78.4,175.2,175.2,175.2c96.8,0,175.2-78.4,175.2-175.2
			C855.7,443.2,777.2,364.8,680.5,364.8z M779.1,595.9h-86.8v-14h86.8V595.9z M765.4,462.8c0,0-6.3,9.2-3,30.9
			c6.1,40.7-15.2,77-53.2,77h-28v11.2c0,0-16.9,0-22.4,0c-5.5,0-16.5-0.9-21.5,3.9c-49.8,47.7-60.4,61.4-63.9,63.3
			c-2.2,1.2-2.8-1.4-2.8-1.4l144.2-177.8c0-32,35-40.6,49-16.8l18.6-6.5L765.4,462.8z"/>
	</g>
	<text transform="matrix(1 0 0 1 928.6151 510.6934)" class="st1 st2 st3 st4">data</text>
	<g>
		<text transform="matrix(1 0 0 1 939.044 720.6343)" class="st1 st2 st3 st4">iku</text>
	</g>
</g>
</svg>
