<svg xmlns="http://www.w3.org/2000/svg" viewBox="0 0 271 40.54"><defs><style>.a{fill:#ffd520;}.b{fill:#fff;}.c{fill:#e03a3e;}.d{fill:#231f20;}</style></defs><title>logo</title><path d="M59.46,31.55h1.43l3,7.11H62.29l-0.65-1.58h-3L58,38.67H56.43Zm1.63,4.16-0.94-2.29-0.94,2.29h1.88Z" transform="translate(0)"/><path d="M66.75,33H64.6V31.6h5.85V33H68.31v5.63H66.75V33h0Z" transform="translate(0)"/><path d="M79.22,33H77.07V31.6h5.85V33H80.77v5.63H79.22V33h0Z" transform="translate(0)"/><path d="M85.12,31.6h1.55v2.8h2.86V31.6h1.55v7.06H89.54V35.83H86.67v2.83H85.12V31.6Z" transform="translate(0)"/><path d="M93.79,31.6h5.33V33H95.33v1.43h3.33V35.8H95.33v1.48h3.83v1.38H93.79V31.6Z" transform="translate(0)"/><path d="M106.46,35.64v-4H108v4a1.49,1.49,0,0,0,1.52,1.75,1.46,1.46,0,0,0,1.52-1.7v-4h1.55v4a2.84,2.84,0,0,1-3.1,3.19A2.8,2.8,0,0,1,106.46,35.64Z" transform="translate(0)"/><path d="M115.2,31.6h1.43l3.31,4.35V31.6h1.53v7.06h-1.32l-3.42-4.49v4.49H115.2V31.6Z" transform="translate(0)"/><path d="M124.25,31.6h1.55v7.06h-1.55V31.6Z" transform="translate(0)"/><path d="M128,31.6h1.72l1.85,5,1.85-5h1.68l-2.86,7.12h-1.37Z" transform="translate(0)"/><path d="M137.15,31.6h5.33V33H138.7v1.43H142V35.8H138.7v1.48h3.83v1.38h-5.38V31.6h0Z" transform="translate(0)"/><path d="M144.92,31.6h3.23a2.82,2.82,0,0,1,2.06.72,2.21,2.21,0,0,1,.6,1.61v0a2.19,2.19,0,0,1-1.51,2.19L151,38.66h-1.82l-1.51-2.26h-1.22v2.26h-1.55V31.6h0ZM148,35a1,1,0,0,0,1.19-1v0a1,1,0,0,0-1-1L148,33h-1.54v2H148Z" transform="translate(0)"/><path d="M152.39,37.64l0.92-1.1a3.24,3.24,0,0,0,2.11.86c0.64,0,1-.25,1-0.67v0c0-.39-0.24-0.6-1.42-0.9-1.42-.36-2.34-0.76-2.34-2.16v0a2.21,2.21,0,0,1,2.27-2.14h0.2a4.09,4.09,0,0,1,2.62.9L157,33.57a3.32,3.32,0,0,0-1.84-.7,0.75,0.75,0,0,0-.9.56V33.5c0,0.47.3,0.62,1.52,0.93,1.43,0.37,2.24.89,2.24,2.12v0c0,1.4-1.07,2.19-2.59,2.19A4.49,4.49,0,0,1,152.39,37.64Z" transform="translate(0)"/><path d="M159.82,31.57h1.55v7.06h-1.55V31.57Z" transform="translate(0)"/><path d="M165.11,33H163V31.57h5.85V33h-2.15v5.63h-1.55V33h0Z" transform="translate(0)"/><path d="M172.68,35.85L170,31.57h1.82l1.68,2.83,1.71-2.83H177l-2.71,4.25v2.81h-1.55V35.85h0Z" transform="translate(0)"/><path d="M183.4,35.15v0a3.75,3.75,0,0,1,7.51,0v0A3.75,3.75,0,0,1,183.4,35.15Zm5.88,0v0a2.15,2.15,0,0,0-2.07-2.22h-0.07A2.11,2.11,0,0,0,185,35s0,0.06,0,.1v0a2.15,2.15,0,0,0,2.07,2.22h0.07a2.11,2.11,0,0,0,2.12-2.1s0-.06,0-0.1h0Z" transform="translate(0)"/><path d="M192.61,31.6H198V33h-3.82v1.5h3.37v1.41h-3.37v2.73h-1.55V31.6Z" transform="translate(0)"/><path d="M205.84,31.6h1.68l1.86,3,1.86-3h1.67v7.06h-1.54V34.06l-2,3h0l-2-3v4.58h-1.52V31.6Z" transform="translate(0)"/><path d="M217.75,31.55h1.43l3,7.11h-1.62l-0.65-1.58h-3l-0.65,1.58h-1.59Zm1.63,4.16-0.94-2.29-0.94,2.29h1.88Z" transform="translate(0)"/><path d="M223.93,31.6h3.23a2.82,2.82,0,0,1,2.06.72,2.21,2.21,0,0,1,.6,1.61v0a2.19,2.19,0,0,1-1.51,2.19L230,38.66h-1.82l-1.51-2.26h-1.22v2.26h-1.56V31.6ZM227.06,35a1,1,0,0,0,1.19-1v0a1,1,0,0,0-1-1L227,33h-1.54v2h1.57Z" transform="translate(0)"/><path d="M233.73,35.88L231,31.6h1.82l1.68,2.84,1.71-2.83H238l-2.71,4.25v2.81h-1.55V35.88h0Z" transform="translate(0)"/><path d="M239.74,31.6h1.55v5.65h3.52v1.41h-5.07V31.6Z" transform="translate(0)"/><path d="M249.41,31.55h1.43l3,7.11h-1.62l-0.65-1.58h-3L248,38.67h-1.59ZM251,35.71l-0.94-2.29-0.94,2.29H251Z" transform="translate(0)"/><path d="M255.51,31.6h1.43l3.31,4.35V31.6h1.53v7.06h-1.32L257,34.17v4.49h-1.53V31.6h0Z" transform="translate(0)"/><path d="M264.46,31.6h2.76A3.52,3.52,0,0,1,271,34.88q0,0.12,0,.23v0a3.54,3.54,0,0,1-3.53,3.54h-3V31.6Zm2.76,5.66a2,2,0,0,0,2.13-2.11v0A2,2,0,0,0,267.42,33H266v4.26h1.2Z" transform="translate(0)"/><path d="M60.28,4.46H53V2.2H70V4.46H62.76V23.88H60.28V4.46Z" transform="translate(0)"/><path d="M79.35,2.2h2.45v9.63H94.31V2.2h2.45V23.88H94.31V14.13H81.79v9.76H79.35V2.2Z" transform="translate(0)"/><path d="M109.89,2.2h15.68V4.43H112.33v7.4h11.83v2.23H112.33v7.59h13.38v2.23H109.89V2.2Z" transform="translate(0)"/><path d="M147.11,2.2h2.45v9.63h12.52V2.2h2.45V23.88h-2.45V14.13H149.55v9.76H147.1V2.2h0Z" transform="translate(0)"/><path d="M174.41,13.1V13a11.06,11.06,0,1,1,22.12-.35q0,0.15,0,.29s0,0,0,.06a11.06,11.06,0,0,1-22.12.35Q174.41,13.25,174.41,13.1Zm19.58,0V13a8.62,8.62,0,0,0-8.28-8.95h-0.27c-5,0-8.49,4-8.49,8.89V13A8.62,8.62,0,0,0,185.24,22h0.27c5,0,8.49-4,8.49-8.89h0Z" transform="translate(0)"/><path d="M210.67,4.46h-7.28V2.2h17V4.46h-7.28V23.88h-2.48V4.46h0Z" transform="translate(0)"/><path d="M228.6,2.2h15.68V4.43H231v7.4h11.83v2.23H231v7.59h13.38v2.23H228.6V2.2Z" transform="translate(0)"/><path d="M256.35,2.2h2.45V21.62H271v2.26H256.35V2.2Z" transform="translate(0)"/><path class="a" d="M10.06,19.17q0.08-.88.2-1.74Q10.14,18.29,10.06,19.17Z" transform="translate(0)"/><path class="a" d="M13.09,7.61h0a5.83,5.83,0,0,1,.18-4A22.54,22.54,0,0,0,7.93,11.4,17.37,17.37,0,0,0,10.33,17,34,34,0,0,1,13.1,7.61h0Z" transform="translate(0)"/><path class="a" d="M11,2.86A8.72,8.72,0,0,0,8.21,6.54,19.63,19.63,0,0,1,16,1,13.91,13.91,0,0,1,18.11.31,13.5,13.5,0,0,1,20.48,0,20.27,20.27,0,0,0,11,2.85,12.78,12.78,0,0,1,15.48.6,20.33,20.33,0,0,0,0,19.38a0.78,0.78,0,0,0,.15.43,3.27,3.27,0,0,0,.52.42A21.21,21.21,0,0,1,11,2.86Z" transform="translate(0)"/><path class="a" d="M13.09,7.61a14.79,14.79,0,0,0,2.54,4.69C16.62,6,18.45,1.14,20.48,0,17.63,0.76,15,3.61,13.09,7.61Z" transform="translate(0)"/><path class="a" d="M19.76,0.08l-0.24,0-0.34.05h0l0.34-.05,0.24,0,0.22,0a16.28,16.28,0,0,0-1.85.33A18.91,18.91,0,0,0,16,1a5.65,5.65,0,0,0-2.73,2.59A13.87,13.87,0,0,1,20.48,0L20,0.05Z" transform="translate(0)"/><path class="a" d="M9.92,21.2q0-.94.12-1.86-0.13,1.43-.15,2.89h0q0-.44,0-0.88V21.2Z" transform="translate(0)"/><path class="a" d="M14.82,22.6A39.72,39.72,0,0,1,10.32,17l-0.06.45q-0.12.86-.2,1.74l0,0.17q-0.08.92-.12,1.86v0.15q0,0.44,0,.88a101.53,101.53,0,0,0,10.57.51h0V17.48c-1.92-2-3.42-3.38-4.84-5.18A71.26,71.26,0,0,0,14.82,22.6Z" transform="translate(0)"/><path class="a" d="M8.21,6.54A23.22,23.22,0,0,0,2.59,21c0.58,0.15,1.62.4,3.14,0.66A28.13,28.13,0,0,1,7.93,11.4,9,9,0,0,1,8.21,6.54Z" transform="translate(0)"/><path d="M11,2.86A21.21,21.21,0,0,0,.7,20.23a5.5,5.5,0,0,0,1.57.69L2.59,21A23.22,23.22,0,0,1,8.21,6.54,8.72,8.72,0,0,1,11,2.86Z" transform="translate(0)"/><path d="M13.09,7.61h0C15,3.61,17.63.76,20.48,0a13.87,13.87,0,0,0-7.21,3.63A5.83,5.83,0,0,0,13.09,7.61Z" transform="translate(0)"/><polygon class="a" points="13.09 7.61 13.09 7.61 13.09 7.61 13.09 7.61"/><polygon points="13.09 7.61 13.09 7.61 13.09 7.61 13.09 7.61"/><path d="M13.27,3.63A5.65,5.65,0,0,1,16,1,19.63,19.63,0,0,0,8.21,6.54a9,9,0,0,0-.28,4.86A22.54,22.54,0,0,1,13.27,3.63Z" transform="translate(0)"/><path d="M20.48,0q-0.6,0-1.21,0H19.19l-0.48,0-0.17,0-0.31,0A20.55,20.55,0,0,0,15.48.6,12.78,12.78,0,0,0,11,2.85,20.27,20.27,0,0,1,20.48,0Z" transform="translate(0)"/><path d="M10,19.35V19.18q0.08-.88.2-1.74h0l0-.28,0,0.28h0c0-.15,0-0.3.06-0.45a17.37,17.37,0,0,1-2.4-5.58,28.13,28.13,0,0,0-2.2,10.26c1.12,0.19,2.5.39,4.16,0.56Q9.91,20.77,10,19.35Z" transform="translate(0)"/><path class="a" d="M10,19.32v0l0-.17v0Z" transform="translate(0)"/><path d="M10,19.32v0l0-.17v0Z" transform="translate(0)"/><path d="M13.09,7.61A34,34,0,0,0,10.33,17a39.72,39.72,0,0,0,4.5,5.62,71.26,71.26,0,0,1,.81-10.3,14.78,14.78,0,0,1-2.55-4.69h0Z" transform="translate(0)"/><polygon class="a" points="13.09 7.61 13.09 7.61 13.09 7.61 13.09 7.61"/><polygon points="13.09 7.61 13.09 7.61 13.09 7.61 13.09 7.61"/><polygon points="13.09 7.61 13.09 7.61 13.09 7.61 13.09 7.61"/><path class="a" d="M10.06,19.17h0q0.08-.88.2-1.74h0Q10.14,18.3,10.06,19.17Z" transform="translate(0)"/><path class="a" d="M10.06,19.21v0h0v0Z" transform="translate(0)"/><polygon class="a" points="10.26 17.43 10.26 17.43 10.27 17.42 10.26 17.43"/><path class="a" d="M9.92,21.2q0-.94.12-1.86h0Q10,20.27,9.92,21.2Z" transform="translate(0)"/><path class="a" d="M10,19.35h0v0Z" transform="translate(0)"/><path d="M16,1A18.91,18.91,0,0,1,18.13.38,16.28,16.28,0,0,1,20,.05h0L20.48,0a13.5,13.5,0,0,0-2.37.31A13.91,13.91,0,0,0,16,1Z" transform="translate(0)"/><path d="M15.64,12.3c1.42,1.81,2.92,3.18,4.84,5.18V0C18.45,1.14,16.62,6,15.64,12.3Z" transform="translate(0)"/><path class="b" d="M9.62,35.58a13.12,13.12,0,0,1-3.55-.9,20.48,20.48,0,0,0,8.66,5.06A12.48,12.48,0,0,1,9.62,35.58Z" transform="translate(0)"/><path class="b" d="M19.6,37.49a2.22,2.22,0,0,1-1.56.13,0.92,0.92,0,0,1,0,.84,1.31,1.31,0,0,1-1.42.43,2.83,2.83,0,0,1-2.15-1.61C13.56,37.21,12.74,37.13,12,37a10.88,10.88,0,0,0,2.42,2,2.08,2.08,0,0,1,1,.2c0.4,0.14.79,0.31,1.17,0.48s1.07,0.44,1.23.5a0.57,0.57,0,0,1,.25.19,20.84,20.84,0,0,0,2.44.14h0V36.46A2,2,0,0,1,19.6,37.49Z" transform="translate(0)"/><path class="c" d="M14.21,36c-1.52-.12-3.07-0.32-4.59-0.44a12.48,12.48,0,0,0,5.11,4.15A20.51,20.51,0,0,0,18,40.4a0.57,0.57,0,0,0-.25-0.19l-1.23-.5c-0.36-.16-0.77-0.34-1.17-0.48a2.08,2.08,0,0,0-1-.2A10.88,10.88,0,0,1,12,37c0.75,0.09,1.56.17,2.44,0.24a2.83,2.83,0,0,0,2.15,1.61A1.31,1.31,0,0,0,18,38.46a0.92,0.92,0,0,0,0-.84,2.22,2.22,0,0,0,1.56-.12,2,2,0,0,0,.88-1V36.23c-1.26,0-2.75,0-4-.08Q15.29,36.1,14.21,36Z" transform="translate(0)"/><path class="b" d="M0.17,19.81A0.78,0.78,0,0,1,0,19.38c0,0.3,0,.59,0,0.89A20,20,0,0,0,2.8,30.5h0a0.85,0.85,0,0,1,.32-0.07c0.27,0,.92.28,2.6,2.87a13.66,13.66,0,0,0,1.71.48A19.15,19.15,0,0,1,5.62,30a1.17,1.17,0,0,1-1.1-.36c-0.92-.82-1.73-2.92-1.33-4A0.94,0.94,0,0,1,3.76,25a0.85,0.85,0,0,1,.57,0,3.58,3.58,0,0,1,.17-2.82,1.39,1.39,0,0,1,1.23-.58C4,21.37,2.7,21,2.27,20.92A4.73,4.73,0,0,1,.17,19.81Z" transform="translate(0)"/><path class="c" d="M20.48,22.74h0A84.74,84.74,0,0,1,5.73,21.67c1.57,0.53,2,2.95,1.61,4.25,1.51-.58,3.41,2,2.74,3.77a1.23,1.23,0,0,1-1.93.54,19.84,19.84,0,0,0,1.73,4.15c1.07,0.15,2.27.28,3.58,0.37-1.05-1.3-.21-2.36,1.2-2.29,1.2,0.06,2.8,1.06,2.46,2.44,1.09-.49,3.15-0.09,3.36,1.33V22.74h0Z" transform="translate(0)"/><path class="c" d="M9.55,35.49A21.54,21.54,0,0,1,7.23,31a22.36,22.36,0,0,1-1.09-3.92,30.84,30.84,0,0,1-.42-4.76V21.67a1.39,1.39,0,0,0-1.23.58,3.58,3.58,0,0,0-.18,2.83,0.85,0.85,0,0,0-.57,0,0.94,0.94,0,0,0-.57.61c-0.4,1.11.4,3.22,1.33,4a1.17,1.17,0,0,0,1.1.36,19.15,19.15,0,0,0,1.81,3.74,13.66,13.66,0,0,1-1.71-.48C4,30.72,3.39,30.4,3.11,30.44a0.85,0.85,0,0,0-.31.06h0a20.38,20.38,0,0,0,3.27,4.17,13.12,13.12,0,0,0,3.55.9Z" transform="translate(0)"/><path class="b" d="M17.12,34.9c0.34-1.37-1.26-2.37-2.46-2.44-1.41-.08-2.25,1-1.2,2.29-1.31-.1-2.51-0.23-3.58-0.37a19.84,19.84,0,0,1-1.73-4.15,1.23,1.23,0,0,0,1.93-.54c0.66-1.75-1.23-4.36-2.74-3.77,0.41-1.3,0-3.71-1.61-4.25v0.68a30.84,30.84,0,0,0,.42,4.76A22.36,22.36,0,0,0,7.23,31a21.54,21.54,0,0,0,2.32,4.46l0.07,0.09c1.52,0.12,3.07.32,4.59,0.44q1.07,0.08,2.25.13c1.27,0.05,2.76.08,4,.08C20.26,34.81,18.2,34.41,17.12,34.9Z" transform="translate(0)"/><path class="b" d="M22.47,0.1h0Z" transform="translate(0)"/><path class="b" d="M34.9,5.92a9.83,9.83,0,0,1,1.5,2,6.44,6.44,0,0,1,.38.93,0.78,0.78,0,0,1-.23.83,1.93,1.93,0,0,1-1.6-.82,4,4,0,0,1-.69-1,17.5,17.5,0,0,1-2,.65l-0.09,0a27.38,27.38,0,0,1,2.08,4.34,1,1,0,0,1,1-.1A3.74,3.74,0,0,1,37,15.91a2.1,2.1,0,0,1-.62,1.79,1,1,0,0,1-.7.2,3.81,3.81,0,0,1,.08,2.83,1.45,1.45,0,0,1-1.22,1,36,36,0,0,0,4.09-.85,4.73,4.73,0,0,0,2.09-1.11,0.78,0.78,0,0,0,.15-0.43A20.12,20.12,0,0,0,34.9,5.92Z" transform="translate(0)"/><path class="b" d="M21.06,6.08A2,2,0,0,1,22.43,6a1.85,1.85,0,0,1,.12-1.71A1.08,1.08,0,0,1,23.83,4a2.58,2.58,0,0,1,1.68,2.14C26.46,6.1,27.33,6,28,5.94c-0.23-.32-0.51-0.64-0.8-1l-0.36-.42A13.75,13.75,0,0,0,25,2.77a0.68,0.68,0,0,1-.31.27,1.88,1.88,0,0,1-1.52-.29,2.86,2.86,0,0,1-.41-0.25,1.72,1.72,0,0,1-.93-1.37A4.06,4.06,0,0,1,20.48.34V6.9A1.19,1.19,0,0,1,21.06,6.08Z" transform="translate(0)"/><path class="c" d="M34.4,21.8H34.13c-1.06-.17-2-1.88-1.53-3.7-1.49,1-3.17-1.09-2.92-3,0.13-1,.81-2,2-1.53a29.36,29.36,0,0,0-1.79-4.66c-1,.14-2.2.24-3.42,0.33,1.09,1.64,0,3.17-1.49,2.92a2.24,2.24,0,0,1-1.77-2.63V9.41c-0.89.62-2.56,0.37-2.72-1.59V22.74A91.86,91.86,0,0,0,34.4,21.8Z" transform="translate(0)"/><path class="c" d="M23.34,0.46a5.12,5.12,0,0,1,1.91.59,4,4,0,0,1,1.3,1c0,0.13-.14.09-0.46,0A26.37,26.37,0,0,1,30,5.76c0.7-.13,1.74-0.28,2.23-0.44a8.47,8.47,0,0,1-1.8-1.58h0C29.8,2.84,31,3.21,31,3.21a8.47,8.47,0,0,1,1.84.89A20.45,20.45,0,0,0,22.47.1a4.72,4.72,0,0,1,.6.19A1.18,1.18,0,0,1,23.34.46Z" transform="translate(0)"/><path class="c" d="M37,15.91a3.74,3.74,0,0,0-1.81-3.16,1,1,0,0,0-1,.1,27.38,27.38,0,0,0-2.08-4.34l0.09,0a17.5,17.5,0,0,0,2-.65,4,4,0,0,0,.69,1c0.51,0.53,1.23,1,1.6.82a0.78,0.78,0,0,0,.23-0.83,6.44,6.44,0,0,0-.37-0.93,9.83,9.83,0,0,0-1.5-2l-0.62-.59a0.38,0.38,0,0,1,.07.24h0a0.65,0.65,0,0,1-.48.59h0a14.18,14.18,0,0,1-3.68,1h-0.1A16.39,16.39,0,0,0,22.17.49C21.67,0.36,21,.18,20.69.08L20.48,0v0.3a4.06,4.06,0,0,0,1.35.79,1.72,1.72,0,0,0,.93,1.37,2.86,2.86,0,0,0,.41.24A1.88,1.88,0,0,0,24.68,3,0.68,0.68,0,0,0,25,2.77a13.75,13.75,0,0,1,1.87,1.76L27.23,5c0.29,0.34.56,0.66,0.8,1C27.33,6,26.46,6.1,25.52,6.17A2.58,2.58,0,0,0,23.83,4a1.08,1.08,0,0,0-1.28.24A1.85,1.85,0,0,0,22.43,6a2,2,0,0,0-1.36.11,1.19,1.19,0,0,0-.58.81V7.83a66,66,0,0,0,9.58-.62h0a30.34,30.34,0,0,1,4.4,14.58h0.09a1.45,1.45,0,0,0,1.22-1,3.81,3.81,0,0,0-.08-2.83,1,1,0,0,0,.7-0.2A2.1,2.1,0,0,0,37,15.91Z" transform="translate(0)"/><path class="b" d="M30.07,7.2h0a66,66,0,0,1-9.58.62,1.75,1.75,0,0,0,2.72,1.59,2.24,2.24,0,0,0,1.68,2.69H25c1.51,0.24,2.58-1.28,1.49-2.92,1.22-.09,2.38-0.2,3.42-0.33a29.36,29.36,0,0,1,1.79,4.66c-1.18-.43-1.86.49-2,1.53-0.25,2,1.43,4.07,2.92,3-0.47,1.82.48,3.53,1.53,3.7h0.35A30.34,30.34,0,0,0,30.07,7.2Z" transform="translate(0)"/><path class="b" d="M34.36,5.57a0.38,0.38,0,0,0-.07-0.24L34.2,5.26Q33.58,4.7,32.92,4.2L32.8,4.1A8.47,8.47,0,0,0,31,3.21s-1.17-.37-0.51.52h0a8.47,8.47,0,0,0,1.8,1.58c-0.48.16-1.53,0.31-2.23,0.44A26.37,26.37,0,0,0,26.09,2.1c0.32,0.09.47,0.13,0.46,0a4,4,0,0,0-1.3-1A5.12,5.12,0,0,0,23.34.46,1.18,1.18,0,0,0,23.06.28,4.72,4.72,0,0,0,22.47.1h0Q21.77,0,21.08,0h-0.6V0l0.21,0c0.32,0.11,1,.28,1.48.41a16.39,16.39,0,0,1,7.92,6.71h0.1a14.18,14.18,0,0,0,3.68-1h0a0.65,0.65,0,0,0,.48-0.59h0Z" transform="translate(0)"/><path class="a" d="M24.76,32.39c-1.31-1.32-1.36-1.37-4.28-4.14V40.54l0.8,0C22.8,40.43,24.07,37.34,24.76,32.39Z" transform="translate(0)"/><path class="a" d="M24.76,32.39a19.34,19.34,0,0,1,2.85,3.48,25.12,25.12,0,0,0,2.29-8.34c-1.18-1.36-1.77-2-4.58-4.89h0v0.63A66.08,66.08,0,0,1,24.76,32.39Z" transform="translate(0)"/><path class="a" d="M29.9,27.53a19.67,19.67,0,0,1,2.88,4.28,25.11,25.11,0,0,0,1.7-9.37c0-.22,0-0.44,0-0.66-1.19.19-2.63,0.38-4.33,0.53,0,0.21,0,.43,0,0.64A39.26,39.26,0,0,1,29.9,27.53Z" transform="translate(0)"/><path class="a" d="M40.1,21c0-.22,0-0.43,0-0.65a5.62,5.62,0,0,1-1.45.62l-0.79.2q0,0.32,0,.65A20.13,20.13,0,0,1,33.13,35.2a4.82,4.82,0,0,1-2.22,2.48l-0.41.24,0.28-.16,0.32-.2A18.94,18.94,0,0,0,40.1,21Z" transform="translate(0)"/><path class="a" d="M33.13,35.2a4.7,4.7,0,0,0-.35-3.39A15.32,15.32,0,0,1,28,38.4c-0.47.7-.8,1-2.3,1.45L25.23,40c-0.82.19-.82,0.19-1.27,0.26l-0.4.07A10,10,0,0,0,28,38.4a2.76,2.76,0,0,0-.41-2.53c-1.39,2.74-3.26,4.39-5.37,4.59a20.55,20.55,0,0,0,3.67-.65A14.73,14.73,0,0,0,33.13,35.2Z" transform="translate(0)"/><path d="M33.13,35.2a14.73,14.73,0,0,1-7.22,4.61,20.43,20.43,0,0,0,4.59-1.88l0.41-.24A4.82,4.82,0,0,0,33.13,35.2Z" transform="translate(0)"/><path d="M24.76,32.39a66.08,66.08,0,0,0,.56-9.12V22.64c-1.48.06-3.1,0.1-4.84,0.1v5.52C23.4,31,23.45,31.08,24.76,32.39Z" transform="translate(0)"/><path d="M27.61,35.88a19.34,19.34,0,0,0-2.85-3.48c-0.69,5-2,8-3.48,8.13l0.58,0,0.34,0h0C24.35,40.27,26.23,38.62,27.61,35.88Z" transform="translate(0)"/><path d="M24,40.24c0.45-.08.45-0.08,1.27-0.26l0.49-.12c1.51-.47,1.83-0.76,2.3-1.45a10,10,0,0,1-4.46,1.91Z" transform="translate(0)"/><path class="d" d="M32.78,31.82a4.7,4.7,0,0,1,.35,3.39,20.13,20.13,0,0,0,4.74-13.43q0-.33,0-0.65c-0.73.17-1.85,0.42-3.39,0.66,0,0.22,0,.44,0,0.66A25.11,25.11,0,0,1,32.78,31.82Z" transform="translate(0)"/><path d="M27.61,35.88A2.76,2.76,0,0,1,28,38.4a15.32,15.32,0,0,0,4.76-6.59,19.67,19.67,0,0,0-2.88-4.28A25.12,25.12,0,0,1,27.61,35.88Z" transform="translate(0)"/><path d="M29.9,27.53A39.26,39.26,0,0,0,30.15,23c0-.21,0-0.43,0-0.64-1.42.13-3,.25-4.82,0.32h0C28.13,25.55,28.72,26.17,29.9,27.53Z" transform="translate(0)"/><path d="M40.91,20.27c0-.3,0-0.6,0-0.89a0.78,0.78,0,0,1-.15.43,3.44,3.44,0,0,1-.64.5c0,0.22,0,.43,0,0.65a18.94,18.94,0,0,1-9,16.61l-0.32.2A20.23,20.23,0,0,0,40.91,20.27Z" transform="translate(0)"/></svg>